<svg xmlns="http://www.w3.org/2000/svg" width="495" height="195" viewBox="0 0 495 195" role="img" aria-label="Most Used Languages">
<title>Most Used Languages</title>
<style>
  text { font-family: -apple-system,BlinkMacSystemFont,'Segoe UI','Noto Sans',Helvetica,Arial,sans-serif; }
  .title { font-size: 18px; font-weight: 600; fill: #58a6ff; }
  .label { font-size: 14px; fill: #c9d1d9; }
  .value { font-size: 14px; font-weight: 700; fill: #c9d1d9; }
  .muted { font-size: 12px; fill: #8b949e; }
  .icon { fill: #8b949e; }
</style>
<rect x="0.5" y="0.5" rx="6" width="494" height="194" fill="#0d1117" stroke="#30363d"/>
<text x="25" y="38" class="title">Most Used Languages</text>
<clipPath id="bar"><rect x="25" y="58" width="445" height="8" rx="4"/></clipPath>
<rect x="25" y="58" width="445" height="8" rx="4" fill="#21262d"/>
<g clip-path="url(#bar)">
<rect x="25.00" y="58" width="216.94" height="8" fill="#3178c6"/>
<rect x="241.44" y="58" width="91.33" height="8" fill="#f1e05a"/>
<rect x="332.28" y="58" width="50.25" height="8" fill="#355570"/>
<rect x="382.03" y="58" width="33.98" height="8" fill="#3572A5"/>
<rect x="415.51" y="58" width="22.45" height="8" fill="#b07219"/>
<rect x="437.46" y="58" width="20.95" height="8" fill="#ff5a03"/>
<rect x="457.91" y="58" width="11.50" height="8" fill="#7355dd"/>
<rect x="468.92" y="58" width="1.58" height="8" fill="#f34b7d"/>
</g>
<circle cx="30.0" cy="92" r="5" fill="#3178c6"/><text x="43.0" y="96" class="label">TypeScript</text><text x="227.5" y="96" class="muted" text-anchor="end">48.6%</text>
<circle cx="252.5" cy="92" r="5" fill="#f1e05a"/><text x="265.5" y="96" class="label">JavaScript</text><text x="450.0" y="96" class="muted" text-anchor="end">20.4%</text>
<circle cx="30.0" cy="116" r="5" fill="#355570"/><text x="43.0" y="120" class="label">GDScript</text><text x="227.5" y="120" class="muted" text-anchor="end">11.2%</text>
<circle cx="252.5" cy="116" r="5" fill="#3572A5"/><text x="265.5" y="120" class="label">Python</text><text x="450.0" y="120" class="muted" text-anchor="end">7.5%</text>
<circle cx="30.0" cy="140" r="5" fill="#b07219"/><text x="43.0" y="144" class="label">Java</text><text x="227.5" y="144" class="muted" text-anchor="end">4.9%</text>
<circle cx="252.5" cy="140" r="5" fill="#ff5a03"/><text x="265.5" y="144" class="label">Astro</text><text x="450.0" y="144" class="muted" text-anchor="end">4.6%</text>
<circle cx="30.0" cy="164" r="5" fill="#7355dd"/><text x="43.0" y="168" class="label">C#</text><text x="227.5" y="168" class="muted" text-anchor="end">2.5%</text>
<circle cx="252.5" cy="164" r="5" fill="#f34b7d"/><text x="265.5" y="168" class="label">C++</text><text x="450.0" y="168" class="muted" text-anchor="end">0.2%</text>
</svg>
